<svg xmlns="http://www.w3.org/2000/svg" xml:space="preserve" width="4347.477" height="2270.358" style="shape-rendering:geometricPrecision;text-rendering:geometricPrecision;image-rendering:optimizeQuality;fill-rule:evenodd;clip-rule:evenodd" viewBox="0 0 116766.81 60978.65">
<style>@font-face{font-family:&quot;Arial&quot;;font-variant:normal;font-style:normal;font-weight:400;src:url(#FontID0)format(svg)}.str0{stroke:#000;stroke-width:20.3;stroke-miterlimit:22.9256}.fil0,.fil1{fill:#000}.fil1{fill-rule:nonzero}.fnt0{font-weight:400;font-size:3581.15px;font-family:&quot;Arial&quot;}</style>
<rect width="100%" height="100%" fill="white"/>
<path d="M60391.33 10.15c5126.49 0 9282.34 4155.85 9282.34 9282.34s-4155.85 9282.34-9282.34 9282.34-9282.34-4155.85-9282.34-9282.34S55264.84 10.15 60391.33 10.15zm0 2578.43c3702.47 0 6703.91 3001.44 6703.91 6703.91s-3001.44 6703.91-6703.91 6703.91-6703.91-3001.44-6703.91-6703.91 3001.44-6703.91 6703.91-6703.91zm-3846.15 5479.16h2621.4V5446.33h2449.51v2621.41h2621.41v2449.51h-2621.41v2621.4h-2449.51v-2621.4h-2621.4V8067.74z" class="fil0 str0"/>
<path d="m16629.76 30398.99 32772.72-16018.05 222.88 456.02-32772.72 16018.05-222.88-456.02zm-1492.83 1012.11 2523.49-2928.25.38 105.74 3.05 104.45 5.72 103.13 8.4 101.84 11.06 100.52 13.73 99.22 16.4 97.91 19.07 96.6 21.75 95.3 24.42 93.99 27.09 92.69 29.76 91.38 32.44 90.07 35.11 88.77 37.78 87.45 40.45 86.16 43.12 84.85 45.8 83.55 48.47 82.24 51.14 80.93 53.81 79.64 56.49 78.32 59.15 77.02 61.83 75.71 64.51 74.4 67.17 73.1 69.85 71.79 72.51 70.48 75.19 69.18 77.87 67.87 80.53 66.57 83.21 65.26-3860.8 192.13z" class="fil1"/>
<path d="M15136.93 37291.96c5126.49 0 9282.34 4155.85 9282.34 9282.34s-4155.85 9282.34-9282.34 9282.34-9282.34-4155.85-9282.34-9282.34 4155.85-9282.34 9282.34-9282.34zm0 2578.43c3702.47 0 6703.91 3001.44 6703.91 6703.91s-3001.44 6703.91-6703.91 6703.91-6703.91-3001.44-6703.91-6703.91 3001.44-6703.91 6703.91-6703.91zM10.15 55897.6h2621.4v-2621.41h2449.5v2621.41h2621.41v2449.5H5081.05v2621.4h-2449.5v-2621.4H10.15z" class="fil0 str0"/>
<text x="2431.61" y="35491.11" class="fil0 fnt0">Умное деление</text>
<path d="m69993.29 38877.24 3319.14-1396.7 1870.71-188.58v2578.43l-1351.08 136.2-2397.15 1008.72-1810.77 1810.77-1008.72 2397.15-136.2 1351.08 136.2 1351.08 1008.72 2397.15 1810.77 1810.77 2397.15 1008.72 1351.08 136.2 1351.08-136.2 2397.15-1008.72 1810.77-1810.77 1008.72-2397.15 136.2-1351.08-136.2-1351.08-1008.72-2397.15-1810.77-1810.77-2397.15-1008.72-1351.08-136.2v-2578.43l1870.71 188.58 3319.14 1396.7 2507.22 2507.22 1396.7 3319.14 188.58 1870.71-188.58 1870.71-1396.7 3319.14-2507.22 2507.22-3319.14 1396.7-1870.71 188.58-1870.71-188.58-3319.14-1396.7-2507.22-2507.22-1396.7-3319.14-188.58-1870.71 188.58-1870.71 1396.7-3319.14 2507.22-2507.22zm0 0 5189.85-1585.28-5189.85 1585.28zm1441.62 2138.07 3748.22-3723.35-1351.08 2714.63 1351.08-2714.63-3748.22 3723.35zm0 0-1441.62-2138.07-369.14 3948.84 369.14-3948.84-1377.86 6345.99-1129.35-3838.77 993.15 5189.85-993.15-5189.85 1129.35 6540.92-2526.05-3221.79 3534.77 5618.93-3534.77-5618.93 2526.05 3221.79-1129.35-6540.92 1129.35 3838.77 1377.86-6345.99 1441.62 2138.07zm5099.3-1008.72-1351.08-2714.63 9093.76 7411.63-3534.77-1877.51 3723.35 3748.22-3723.35-3748.22 3534.77 5618.93-2526.05-3221.79 1129.35 6540.92-1129.35-3838.77-1377.86 6345.99 369.14-3948.84-3688.28 5345.54 1877.51-3534.77-3748.22 3723.35 3748.22-3723.35-5618.93 3534.77 3221.79-2526.05-6540.92 1129.35 3838.77-1129.35-6345.99-1377.86 3948.84 369.14-5345.54-3688.28 3534.77 1877.51-3723.35-3748.22 3723.35 3748.22-3534.77-1877.51 5345.54 3688.28-3948.84-369.14 6345.99 1377.86-3838.77 1129.35 5189.85-993.15-5189.85 993.15 6540.92-1129.35-3221.79 2526.05 5618.93-3534.77-1877.51 3534.77 3688.28-5345.54-369.14 3948.84 1377.86-6345.99 1129.35 3838.77-993.15-5189.85 993.15 5189.85-1129.35-6540.92 2526.05 3221.79-3534.77-5618.93 3534.77 1877.51-5345.54-3688.28-3748.22-3723.35 1351.08 2714.63zm2397.15 1008.72-3748.22-3723.35 5189.85 1585.28-5189.85-1585.28 7697.06 4092.49-7697.06-4092.49 9093.76 7411.63-5345.54-3688.28zm-4972.97 6783.74h-2621.4v-2449.51h7692.32v2449.51h-5070.92zm0 0-2621.4-2449.51 2621.4 2449.51zm2449.51 2621.4h-2449.51v-2621.4h2449.51v2621.4zm0 0-2449.51-2621.4 2449.51 2621.4zm0-2621.4L71337 45349.54l7692.31 2449.51-5070.91-2449.51 5070.91 2449.51-2621.41-2449.51 2621.41 2449.51L71337 45349.54l5070.9 2449.51zm-2449.51-5070.91h2449.51v2621.41h-2449.51v-2621.41zm0 0 2449.51 2621.41-2449.51-2621.41zm-640.95-5227.76-2950.64 1241.63 4613.66-1409.28-1663.01 167.65zm1793.5-165.22-5085.54 1553.42 1412.65 2095.1 3672.89-3648.52zm-3702.18 3677.62-1400.59-2077.23-358.63 3836.46 1697.94-1697.94-.7.29 61.57-61.16.42-.42zm3701.48-3619.86-3587.16 3563.37 2294.14-965.39 1293.02-2597.98zm52.6-14.63-1296.26 2604.49 1296.26-130.68v-2473.81zm40.61 0v2473.81l1296.26 130.68-1296.26-2604.49zm52.6 14.63 1293.02 2597.98 2294.14 965.39-3587.16-3563.37zm233.5 174.89 3454.8 3431.87 4927.07 3399.55-8381.87-6831.42zm-5885.24 5253.3 337.63-3611.73-1260.24 5804.22 922.61-2192.5zm-1022.54 2534.23-32.62 77.52 45.37-208.93-1010.11-3433.5 888.62 4643.65 108.74-1078.73zm30.69-213.99 1346.37-6200.92-2449.9 2449.9 1103.54 3751.02zm-153.23 1436.21-572.16-2989.85 650.62 3768.2-78.46-778.35zm122.56 1272.12-1103.9-6393.59-1365.24 3244.37 2469.14 3149.21zm16.07 86.06-2283.09-2911.91 3194.79 5078.49-911.71-2166.58zm1085.35 2474.94 55.56 132.04-128.81-204.77-3220.98-1710.84 4874.04 3362.96-1525.68-1525.68 1.34 2.13-55.47-55.84zm-173.55-232.16-3406.04-5414.29-181.71 1802.57 3587.75 3611.72zm5.77 63.25-3588.75-3612.72 181.77 1803.08 3406.99 1809.64zm2006.94 1950.24 84.49 84.49-179.1-123.58-3609.52-337.43 5804.22 1260.24-2100.09-883.72zm-162.71-86.08-5224.76-3604.95 1365.13 3244.15 3859.62 360.8zm2604.53 1069.73 77.52 32.62-208.92-45.37-3433.5 1010.11 4643.65-888.62-1078.74-108.74zm-213.98-30.69-6200.92-1346.37 2449.9 2449.9 3751.02-1103.54zm1436.21 153.23-2989.85 572.16 3768.2-650.62-778.35 78.46zm1272.12-122.56-6393.59 1103.9 3244.37 1365.24 3149.21-2469.14zm86.06-16.07-2911.91 2283.09 5078.49-3194.79-2166.58 911.71zm2474.93-1085.35 132.04-55.56-204.75 128.81-1710.85 3220.98 3362.96-4874.04-1525.67 1525.67 2.11-1.33-55.84 55.47zm-232.15 173.55-5414.29 3406.04 1802.57 181.71 3611.72-3587.75zm63.25-5.77-3612.72 3588.75 1803.08-181.77 1809.64-3406.99zm1950.24-2006.95 84.48-84.48-123.57 179.1-337.43 3609.52 1260.24-5804.22-883.72 2100.08zm-86.08 162.73-3604.95 5224.76 3244.15-1365.13 360.8-3859.62zm1069.73-2604.55 32.61-77.49-45.37 208.92 1010.12 3433.5-888.62-4643.65-108.74 1078.72zm-30.69 214-1346.37 6200.92 2449.9-2449.9-1103.54-3751.02zm153.23-1436.21 572.16 2989.85-650.62-3768.2 78.46 778.35zm-122.56-1272.12 1103.9 6393.59 1365.24-3244.37-2469.14-3149.21zm-16.07-86.06 2283.09 2911.91-3194.79-5078.49 911.71 2166.58zm-1085.35-2474.93-55.57-132.04 128.82 204.75 3220.98 1710.85-4874.04-3362.96 1525.64 1525.64-1.31-2.08 55.48 55.84zm173.55 232.15 3406.04 5414.29 181.71-1802.57-3587.75-3611.72zm-5.77-63.25 3588.75 3612.72-181.77-1803.08-3406.99-1809.64zm-5494.42-5499.72 8870.34 7229.53-1362.38-3237.59-7507.95-3991.94zm21.76-34.41 7391.6 3930.08-2407.71-2407.71-4983.89-1522.37zm7.62-39.96L79999.48 38742l-2950.64-1241.63-1663.01-167.65zm-4028.54 10446.02h2549.7l-2549.7-2382.51v2382.51zm90.95-2352.97 2489.85 2326.57v-4.69l29.05 31.08h2352.16l-4871.06-2352.97zm2561.54 2393.57h-4.69l2382.51 2549.7v-2549.7h-2377.82zm-31.08 2580.79h2382.51l-2382.51-2549.7v2549.7zm2433.74-2621.4H78898.92l-7296.43-2323.45 4809.93 2323.45zm-4945.07-2408.9 7296.43 2323.45-4809.94-2323.45h-2486.48zm7541.63 0h-2549.71l2549.71 2382.51v-2382.51zm-90.95 2352.97-2489.86-2326.57v4.7l-29.05-31.09h-2352.16l4871.07 2352.97zm-2561.56-2393.57h4.7l-2382.51-2549.71v2549.71h2377.81zm31.09-2580.8h-2382.51l2382.51 2549.71v-2549.71z" class="fil0"/>
<text x="63768.22" y="35378.31" class="fil0 fnt0">Триангуляция</text>
<path d="m113978.61 44703.59-5345.54-3688.28 1810.77 1810.77 3534.77 1877.51zm0 0-1396.7-3319.14-2507.22-2507.22-3319.14-1396.7-1870.71-188.58 3748.22 3723.35 5345.54 3688.28zm0 0 188.58 1870.71-188.58 1870.71-1396.7 3319.14-2507.22 2507.22-3319.14 1396.7-1870.71 188.58-1870.71-188.58-3319.14-1396.7-2507.22-2507.22-1396.7-3319.14-188.58-1870.71 188.58-1870.71 1396.7-3319.14 2507.22-2507.22 3319.14-1396.7 1870.71-188.58v2578.43l-1351.08 136.2-2397.15 1008.72-1810.77 1810.77-1008.72 2397.15-136.2 1351.08 136.2 1351.08 1008.72 2397.15 1810.77 1810.77 2397.15 1008.72 1351.08 136.2 1351.08-136.2 2397.15-1008.72 1810.77-1810.77 1008.72-2397.15 136.2-1351.08-136.2-1351.08-1008.72-2397.15 3534.77 1877.51zm0 3741.42-2526.05-3221.79 2526.05 3221.79zm-1396.7 3319.14-993.15-5189.85 993.15 5189.85zm0 0-1129.35-3838.77 1129.35 3838.77zm-2507.22 2507.22 369.14-3948.84-369.14 3948.84zm-3319.14 1396.7 1877.51-3534.77-1877.51 3534.77zm-3741.42 0 3221.79-2526.05-3221.79 2526.05zm-3319.14-1396.7 5189.85-993.15-5189.85 993.15zm0 0 3838.77-1129.35-3838.77 1129.35zm-2507.22-2507.22 3948.84 369.14-3948.84-369.14zm-1396.7-3319.14 3534.77 1877.51-3534.77-1877.51zm0-3741.42 2526.05 3221.79-2526.05-3221.79zm1396.7-3319.14 993.15 5189.85-993.15-5189.85zm0 0 1129.35 3838.77-1129.35-3838.77zm2507.22-2507.22-369.14 3948.84 369.14-3948.84zm0 0 1441.62 2138.07-1441.62-2138.07zm8938.07 2138.07-2397.15-1008.72-1351.08-136.2v-2578.43l3748.22 3723.35zm-2397.15-1008.72-1351.08-2714.63 1351.08 2714.63zm-2702.15 0 1351.08-2714.63-1351.08 2714.63zm126.32 5342.96H108731v2449.51h-7692.32v-2449.51h2621.4zm0 0v-2621.41h2449.51v2621.41h-2449.51zm2449.51 2449.51v2621.4h-2449.51v-2621.4h2449.51zm3953.41-8904.79-3312.46-1393.88-1810.95-182.56 3706.45 3681.85 5287.05 3647.94-1368.22-3251.47-2501.88-2501.88zm3616.02 5627.22-4874.04-3362.96 1651.05 1651.05 3222.99 1711.91zm-5134.11-3565.2-3587.16-3563.37 1293.02 2597.98 2294.14 965.39zm5414.65 3760.18-3475.02-1845.78 985.6 2342.18 2493.37 3180.11 183.33-1818.67-187.28-1857.84zm-4.21 3731.67-2475.66-3157.53 129.07 1280.43 980.47 5123.56 1366.11-3246.46zm-1471.76 2910.05-888.62-4643.65-121.87 1208.89 1010.49 3434.76zm75.48 400.09-1109.91-3772.7-985.48 2341.91-363.62 3889.79 2459.01-2459.01zm-2503.38 2499.15 362.78-3880.83-1768.89 1768.89-1849.41 3481.86 3255.53-1369.93zm-3313 1391.59 1845.78-3475.02-2342.18 985.6-3180.11 2493.37 1818.67 183.33 1857.84-187.28zm-3731.67-4.21 3157.53-2475.66-1280.43 129.07-5123.56 980.47 3246.46 1366.11zm-2910.05-1471.76 4643.65-888.62-1208.89-121.87-3434.76 1010.49zm-400.09 75.48 3772.7-1109.91-2341.91-985.48-3889.79-363.62 2459.01 2459.01zm-2499.15-2503.38 3880.83 362.78-1768.89-1768.89-3481.86-1849.41 1369.93 3255.53zm-1391.59-3313 3475.02 1845.78-985.6-2342.18-2493.37-3180.11-183.33 1818.67 187.28 1857.84zm4.21-3731.67L98290.01 47858l-129.07-1280.43-980.47-5123.56-1366.11 3246.46zm1471.76-2910.05 888.62 4643.65 121.87-1208.89-1010.49-3434.76zm-75.48-400.09 1109.91 3772.7 985.48-2341.91 363.62-3889.79-2459.01 2459.01zm2499.24-2454.77-358.63 3836.46 1759.23-1759.23-1400.59-2077.23zm15.71-49.23 1418.57 2103.89 2374.77-999.31 1331.41-2675.12-1831.19 184.6-3293.56 1385.93zm6475.83 1096.46-1296.26-2604.49v2473.81l1296.26 130.68zm-1336.86-130.68V37378.3l-1296.26 2604.49 1296.26-130.68zm-1184.15 5477.15h2408.9v-2580.8h-2408.9v2580.8zm2429.2 40.61H101059v2408.9H108710.7v-2408.9H106109.6zm-20.3 2449.51h-2408.9v2580.79h2408.9v-2580.79z" class="fil0"/>
<text x="93002.91" y="35455.3" class="fil0 fnt0">Декомпозиция</text>
<path d="m52709.31 52815.53-1697.88-1976.92-908.75 908.75-1068.83 721.72-890.45 402.34-629.62 195.74-654.47 133.81-675.95 68.52-344.98 8.72-344.98-8.72-675.95-68.52-654.47-133.81-629.62-195.74-890.45-402.34-1068.83-721.72-908.75-908.75-721.72-1068.83-402.34-890.45-195.74-629.62-133.81-654.47-68.52-675.95-8.72-344.98 8.72-344.98 68.52-675.95 133.81-654.47 195.74-629.62 402.34-890.45 721.72-1068.83 908.75-908.75 1068.83-721.72 890.45-402.34 629.62-195.74 654.47-133.81 675.95-68.52 344.98-8.72 344.98 8.72 675.95 68.52 654.47 133.81 629.62 195.74 890.45 402.34 1068.83 721.72 908.75 908.75 721.72 1068.83 402.34 890.45 195.74 629.62 133.81 654.47 68.52 675.95 8.72 344.98-8.72 344.98-68.52 675.95-133.81 654.47-195.74 629.62-402.34 890.45-721.72 1068.83 1697.88 1976.92zm0 0-629.71 629.71-687.47 567.31-740.54 500.24-788.96 428.5-832.7 352.09-871.77 271.02-906.2 185.28-935.94 94.87-477.67 12.08-477.67-12.08-935.94-94.87-906.2-185.28-871.77-271.02-832.7-352.09-788.96-428.5-740.54-500.24-687.47-567.31-629.71-629.71-567.31-687.47-500.24-740.54-428.5-788.96-352.09-832.7-271.02-871.77-185.28-906.2-94.87-935.94-12.08-477.67 12.08-477.67 94.87-935.94 185.28-906.2 271.02-871.77 352.09-832.7 428.5-788.96 500.24-740.54 567.31-687.47 629.71-629.71 687.47-567.31 740.54-500.24 788.96-428.5 832.7-352.09 871.77-271.02 906.2-185.28 935.94-94.87 477.67-12.08 477.67 12.08 935.94 94.87 906.2 185.28 871.77 271.02 832.7 352.09 788.96 428.5 740.54 500.24 687.47 567.31 629.71 629.71 567.31 687.47 500.24 740.54 428.5 788.96 352.09 832.7 271.02 871.77 185.28 906.2 94.87 935.94 12.08 477.67-12.08 477.67-94.87 935.94-185.28 906.2-271.02 871.77-352.09 832.7-428.5 788.96-500.24 740.54-567.31 687.47zm-10717.1-7465.99h2621.4v-2621.41h2449.51v2621.41h2621.41v2449.51h-2621.41v2621.4h-2449.51v-2621.4h-2621.4v-2449.51zm4322.41-8025.3-476.26-12.05-476.26 12.05-934.33 94.71-904.07 184.84-870.14 270.51-830.63 351.21-786.84 427.34-739.75 499.71-685.02 565.29-629.39 629.39-565.29 685.02-499.71 739.75-427.34 786.84-351.21 830.63-270.51 870.14-184.84 904.07-94.71 934.33-12.05 476.26 12.05 476.26 94.71 934.33 184.84 904.07 270.51 870.14 351.21 830.63 427.34 786.84 499.71 739.75 565.29 685.02 629.39 629.39 685.02 565.29 739.75 499.71 786.84 427.34 830.63 351.21 870.14 270.51 904.07 184.84 934.33 94.71 476.26 12.05 476.26-12.05 934.33-94.71 904.07-184.84 870.14-270.51 830.63-351.21 786.84-427.34 739.75-499.71 685.02-565.29 616.28-616.28-1671.36-1946.03-893.3 893.3-1.3 1.3-1.72 1.16-1068.83 721.72-1.36.92-1.65.74-890.45 402.34-.96.44-1.41.44-629.62 195.74-.82.26-1.09.21-654.47 133.81-1.04.21-1.03.1-675.95 68.52-1.5.08-344.98 8.72h-.95l-344.98-8.72-1.5-.08-675.95-68.52-1.04-.1-1.03-.21-654.47-133.81-1.1-.21-.81-.26-629.62-195.74-1.42-.44-.95-.44-890.45-402.34-1.66-.74-1.35-.92-1068.83-721.72-1.73-1.16-1.29-1.3-908.75-908.75-1.3-1.29-1.16-1.73-721.72-1068.83-.92-1.35-.74-1.66-402.34-890.45-.44-.95-.44-1.42-195.74-629.62-.26-.81-.21-1.1-133.81-654.47-.21-1.03-.1-1.04-68.52-675.95-.08-1.5-8.72-344.98v-.95l8.72-344.98.08-1.5 68.52-675.95.1-1.03.21-1.04 133.81-654.47.21-1.09.26-.82 195.74-629.62.44-1.41.44-.96 402.34-890.45.74-1.65.92-1.36 721.72-1068.83 1.16-1.72 1.3-1.3 908.75-908.75 1.29-1.29 1.73-1.17 1068.83-721.72 1.35-.91 1.66-.75 890.45-402.34.95-.43 1.42-.45 629.62-195.74.81-.25 1.1-.22 654.47-133.81 1.03-.2 1.04-.11 675.95-68.52 1.5-.08 344.98-8.72h.95l344.98 8.72 1.5.08 675.95 68.52 1.03.11 1.04.2 654.47 133.81 1.09.22.82.25 629.62 195.74 1.41.45.96.43 890.45 402.34 1.65.75 1.36.91 1068.83 721.72 1.72 1.17 1.3 1.29 908.75 908.75 1.29 1.3 1.17 1.72 721.72 1068.83.91 1.36.75 1.65 402.34 890.45.43.96.45 1.41 195.74 629.62.25.82.22 1.09 133.81 654.47.2 1.04.11 1.03 68.52 675.95.08 1.5 8.72 344.98v.95l-8.72 344.98-.08 1.5-68.52 675.95-.11 1.04-.2 1.03-133.81 654.47-.22 1.1-.25.81-195.74 629.62-.45 1.42-.43.95-402.34 890.45-.75 1.66-.91 1.35-713.08 1056.04 1672.14 1946.95 551.07-667.78 499.71-739.75 427.34-786.84 351.21-830.63 270.51-870.14 184.84-904.07 94.71-934.33 12.05-476.26-12.05-476.26-94.71-934.33-184.84-904.07-270.51-870.14-351.21-830.63-427.34-786.84-499.71-739.75-565.29-685.02-629.39-629.39-685.02-565.29-739.75-499.71-786.84-427.34-830.63-351.21-870.14-270.51-904.07-184.84-934.33-94.71zm-1701.01 8045.61h-2601.09v2408.9H44633.91V50400.14h2408.9V47778.75h2621.4v-2408.9h-2621.4v-2621.4h-2408.9v2621.4h-20.3z" class="fil0"/>
<text x="34037.58" y="35378.31" class="fil0 fnt0">Резка струной</text>
<path d="m46381.15 29785.77 7133.71-10667.23 421.91 282.14-7133.71 10667.23-421.91-282.14zm-781.64 1625.33 709.32-3799.78 53.49 91.22 55.13 88.75 56.79 86.28 58.44 83.8 60.1 81.33 61.75 78.87 63.4 76.38 65.06 73.92 66.7 71.44 68.36 68.97 70.01 66.5 71.67 64.02 73.32 61.56 74.98 59.09 76.62 56.6 78.29 54.14 79.93 51.67 81.59 49.19 83.24 46.73 84.9 44.25 86.55 41.78 88.19 39.3 89.85 36.84 91.51 34.36 93.16 31.9 94.81 29.41 96.47 26.95 98.11 24.47 99.78 22 101.42 19.53 103.09 17.05 104.72 14.59-3240.75 2106.89zM103930 30855.01 71157.28 14836.96l222.88-456.02 32772.72 16018.05-222.88 456.02zm1715.71 556.1-3860.8-192.13 83.21-65.26 80.53-66.57 77.87-67.87 75.19-69.18 72.51-70.48 69.85-71.79 67.17-73.1 64.51-74.41 61.83-75.7 59.15-77.02 56.49-78.32 53.81-79.64 51.14-80.93 48.47-82.25 45.8-83.53 43.12-84.85 40.46-86.16 37.78-87.45 35.1-88.77 32.44-90.07 29.76-91.38 27.09-92.69 24.42-93.99 21.75-95.3 19.07-96.6 16.41-97.91 13.72-99.22 11.06-100.52 8.4-101.84 5.72-103.13 3.06-104.45.38-105.75 2523.48 2928.26zM73979.59 30067.92l-7133.71-10667.23 421.91-282.14 7133.71 10667.23-421.91 282.14zm1203.55 1343.19-3240.76-2106.89 104.73-14.58 103.09-17.06 101.42-19.53 99.78-22 98.11-24.47 96.47-26.94 94.81-29.42 93.16-31.9 91.5-34.36 89.86-36.83 88.19-39.31 86.55-41.78 84.9-44.25 83.24-46.73 81.59-49.19 79.93-51.67 78.29-54.14 76.62-56.6 74.98-59.09 73.32-61.55 71.67-64.03 70.01-66.5 68.36-68.97 66.7-71.44 65.06-73.91 63.4-76.39 61.74-78.87 60.1-81.33 58.45-83.8 56.79-86.28 55.13-88.75 53.49-91.22 709.32 3799.78z" class="fil1"/>
</svg>