<svg xmlns="http://www.w3.org/2000/svg" xml:space="preserve" width="711.224" height="164.4" style="shape-rendering:geometricPrecision;text-rendering:geometricPrecision;image-rendering:optimizeQuality;fill-rule:evenodd;clip-rule:evenodd" viewBox="0 0 18923.53 4374.18"><path d="M1860.3 1767.17c95.83 0 407.53-4.9 484.63 8.22 207.38 35.28 241.17 302.25 60.41 384.34 245.53 72.43 191.7 414.93-54.54 441.62l-490.49 5.67v-839.84zm170.08 139.58v193.54c104.63 0 254.92 14.66 302.43-32.84 39.96-39.96 41.12-145.89-60.41-157.76l-242.02-2.94zm0 333.12v225.21l273.5-5.08c111.22-21.59 114.39-173.15 14.07-208-46.35-16.1-214.07-12.13-287.57-12.13zm156.71-1063.85c558.4 0 1011.07 452.67 1011.07 1011.07 0 558.4-452.67 1011.07-1011.07 1011.07-558.4 0-1011.07-452.67-1011.07-1011.07 0-558.4 452.67-1011.07 1011.07-1011.07zm0-356.53c755.31 0 1367.6 612.29 1367.6 1367.6s-612.29 1367.6-1367.6 1367.6-1367.6-612.29-1367.6-1367.6 612.29-1367.6 1367.6-1367.6zm0-388.46c969.85 0 1756.06 786.21 1756.06 1756.06 0 969.85-786.21 1756.06-1756.06 1756.06-969.85 0-1756.06-786.21-1756.06-1756.06 0-969.85 786.21-1756.06 1756.06-1756.06zm0-431.03c1207.9 0 2187.09 979.19 2187.09 2187.09s-979.19 2187.09-2187.09 2187.09S0 3394.99 0 2187.09 979.19 0 2187.09 0zm8507.37 0c1207.9 0 2187.09 979.19 2187.09 2187.09s-979.19 2187.09-2187.09 2187.09-2187.09-979.19-2187.09-2187.09S9486.56 0 10694.46 0zm0 431.03c969.85 0 1756.06 786.21 1756.06 1756.06 0 969.85-786.21 1756.06-1756.06 1756.06-969.85 0-1756.06-786.21-1756.06-1756.06 0-969.85 786.21-1756.06 1756.06-1756.06zm4985.56 388.46c755.31 0 1367.6 612.29 1367.6 1367.6s-612.29 1367.6-1367.6 1367.6-1367.6-612.29-1367.6-1367.6 612.29-1367.6 1367.6-1367.6zm0 356.53c558.4 0 1011.07 452.67 1011.07 1011.07 0 558.4-452.67 1011.07-1011.07 1011.07-558.4 0-1011.07-452.67-1011.07-1011.07 0-558.4 452.67-1011.07 1011.07-1011.07zm2539.11 591.14c95.83 0 407.53-4.9 484.63 8.22 207.38 35.28 241.17 302.25 60.41 384.34 245.53 72.43 191.7 414.93-54.54 441.62l-490.49 5.67v-839.84zm170.08 472.7v225.21l273.5-5.08c111.22-21.59 114.39-173.15 14.07-208-46.35-16.1-214.07-12.13-287.57-12.13zm0-333.12v193.54c104.63 0 254.92 14.66 302.43-32.84 39.96-39.96 41.12-145.89-60.41-157.76l-242.02-2.94z" class="fil0"/><path d="M4915.4 2602.17h1383.58v415.07l1383.58-830.15-1383.58-830.15v415.07H4915.4z" style="fill:#ed3237;fill-rule:nonzero"/></svg>